<svg width="24" height="24" viewBox="0 0 24 24" fill="none" xmlns="http://www.w3.org/2000/svg">
<path d="M21.2104 15.8901C20.5742 17.3946 19.5792 18.7203 18.3123 19.7514C17.0454 20.7825 15.5452 21.4875 13.9428 21.8049C12.3405 22.1222 10.6848 22.0422 9.12055 21.5719C7.55627 21.1015 6.13103 20.2551 4.96942 19.1067C3.80782 17.9583 2.94522 16.5428 2.45704 14.984C1.96886 13.4252 1.86996 11.7706 2.169 10.1647C2.46804 8.55886 3.1559 7.05071 4.17245 5.77211C5.189 4.49351 6.50329 3.4834 8.0004 2.83008" stroke="white" stroke-width="2" stroke-linecap="round" stroke-linejoin="round"/>
<path d="M21.2388 8.17317C21.7413 9.38642 22 10.6868 22 12H12V2C13.3132 2 14.6136 2.25866 15.8268 2.7612C17.0401 3.26375 18.1425 4.00035 19.0711 4.92893C19.9997 5.85752 20.7362 6.95991 21.2388 8.17317Z" stroke="white" stroke-width="2" stroke-linecap="round" stroke-linejoin="round"/>
</svg>
