<svg width="24" height="25" viewBox="0 0 24 25" fill="none" xmlns="http://www.w3.org/2000/svg">
<path d="M17 21.4346V19.4346C17 18.3737 16.5786 17.3563 15.8284 16.6061C15.0783 15.856 14.0609 15.4346 13 15.4346H5C3.93913 15.4346 2.92172 15.856 2.17157 16.6061C1.42143 17.3563 1 18.3737 1 19.4346V21.4346" stroke="white" stroke-width="2" stroke-linecap="round" stroke-linejoin="round"/>
<path d="M9 11.4346C11.2091 11.4346 13 9.64371 13 7.43457C13 5.22543 11.2091 3.43457 9 3.43457C6.79086 3.43457 5 5.22543 5 7.43457C5 9.64371 6.79086 11.4346 9 11.4346Z" stroke="white" stroke-width="2" stroke-linecap="round" stroke-linejoin="round"/>
<path d="M23 21.4345V19.4345C22.9993 18.5482 22.7044 17.6872 22.1614 16.9868C21.6184 16.2863 20.8581 15.786 20 15.5645" stroke="white" stroke-width="2" stroke-linecap="round" stroke-linejoin="round"/>
<path d="M16 3.56445C16.8604 3.78475 17.623 4.28515 18.1676 4.98676C18.7122 5.68837 19.0078 6.55128 19.0078 7.43945C19.0078 8.32762 18.7122 9.19053 18.1676 9.89214C17.623 10.5938 16.8604 11.0942 16 11.3145" stroke="white" stroke-width="2" stroke-linecap="round" stroke-linejoin="round"/>
</svg>
