<svg width="22" height="23" viewBox="0 0 22 23" fill="none" xmlns="http://www.w3.org/2000/svg">
<g clip-path="url(#clip0_693_54980)">
<path d="M8.60177 8.08577H11.696V6.31764H9.92785V5.43359H8.15973V6.36272C7.1519 6.56781 6.3916 7.46072 6.3916 8.52777C6.3916 9.74599 7.38351 10.7379 8.60173 10.7379H9.48581C9.72981 10.7379 9.92785 10.9359 9.92785 11.1799C9.92785 11.4239 9.72981 11.622 9.48581 11.622H6.3916V13.3901H8.15973V14.2742H9.92785V13.345C10.9357 13.1399 11.696 12.2462 11.696 11.18C11.696 9.96177 10.7049 8.96985 9.48585 8.96985H8.60181C8.35868 8.96985 8.15977 8.77181 8.15977 8.52781C8.15977 8.28381 8.35864 8.08577 8.60177 8.08577Z" fill="white"/>
<path d="M8.21356 16.8736C4.70386 16.4608 1.97121 13.4727 1.97121 9.8542C1.97121 5.95463 5.14408 2.78172 9.04369 2.78172C12.9433 2.78172 16.1162 5.95463 16.1162 9.85424C16.1162 10.1539 16.0914 10.4483 16.0552 10.7383H17.8401C17.8684 10.4474 17.8843 10.153 17.8843 9.85424C17.8843 4.97954 13.9193 1.01367 9.04373 1.01367C4.169 1.01363 0.203125 4.97954 0.203125 9.85424C0.203125 13.9227 2.96756 17.3475 6.71334 18.373L8.21356 16.8736Z" fill="white"/>
<path d="M16.116 12.5068V14.275H18.4021L15.2319 17.4452L13.2048 15.4181C12.8591 15.0724 12.3004 15.0724 11.9547 15.4181L6.65039 20.7224L7.90043 21.9724L12.5797 17.2931L14.6069 19.3194C14.9525 19.6651 15.5113 19.6651 15.8569 19.3194L19.6522 15.525V17.8112H21.4203V12.5068H16.116Z" fill="white"/>
</g>
<defs>
<clipPath id="clip0_693_54980">
<rect width="21.2174" height="21.2174" fill="white" transform="translate(0.203125 0.883789)"/>
</clipPath>
</defs>
</svg>
