<svg width="24" height="25" viewBox="0 0 24 25" fill="none" xmlns="http://www.w3.org/2000/svg">
<path d="M3 6.20215L6 2.20215H18L21 6.20215V20.2021C21 20.7326 20.7893 21.2413 20.4142 21.6164C20.0391 21.9914 19.5304 22.2021 19 22.2021H5C4.46957 22.2021 3.96086 21.9914 3.58579 21.6164C3.21071 21.2413 3 20.7326 3 20.2021V6.20215Z" stroke="white" stroke-width="2" stroke-linecap="round" stroke-linejoin="round"/>
<path d="M3 6.20215H21" stroke="white" stroke-width="2" stroke-linecap="round" stroke-linejoin="round"/>
<path d="M16 10.2021C16 11.263 15.5786 12.2804 14.8284 13.0306C14.0783 13.7807 13.0609 14.2021 12 14.2021C10.9391 14.2021 9.92172 13.7807 9.17157 13.0306C8.42143 12.2804 8 11.263 8 10.2021" stroke="white" stroke-width="2" stroke-linecap="round" stroke-linejoin="round"/>
</svg>
