<svg width="19" height="19" viewBox="0 0 19 19" fill="none" xmlns="http://www.w3.org/2000/svg">
<rect x="0.271429" y="0.271429" width="18.4571" height="18.4571" rx="2.44286" fill="#D9D9D9" fill-opacity="0.1" stroke="white" stroke-width="0.542857"/>
<g clip-path="url(#clip0_771_42260)">
<path d="M13.4237 6.07812H7.95855C7.80995 6.07812 7.66257 6.11223 7.52859 6.17557L5.23509 7.26933C4.76128 7.39235 4.47627 7.87712 4.60051 8.35092C4.65045 8.54337 4.76372 8.71267 4.92206 8.83325C4.5323 9.12801 4.45435 9.6822 4.7491 10.072C4.79904 10.1377 4.85629 10.1962 4.92206 10.2449C4.5323 10.5397 4.45557 11.0951 4.75032 11.4848C4.79904 11.5494 4.85629 11.6066 4.92206 11.6566C4.5323 11.9538 4.458 12.5104 4.75398 12.899C4.92206 13.1194 5.18393 13.2485 5.46164 13.2485H10.5164C10.643 13.2485 10.7673 13.2205 10.8818 13.1681L13.7258 12.2607C14.2508 12.0914 14.5382 11.5299 14.3701 11.005C14.3214 10.8551 14.2386 10.7175 14.1265 10.6067C14.5151 10.2169 14.5151 9.58598 14.1265 9.19622C14.5163 8.80646 14.5163 8.17309 14.1265 7.78333C14.5163 7.39357 14.5163 6.76143 14.1265 6.37045C13.939 6.18287 13.6844 6.07812 13.4201 6.07812H13.4237ZM14.0559 8.48734C14.0559 8.76261 13.8781 9.00621 13.6162 9.09025L11.3617 9.81009C11.4725 9.47149 11.369 9.09878 11.0973 8.86736L13.727 8.02815C13.7575 8.01841 13.7867 8.00379 13.8159 7.99161C13.9682 8.11098 14.0559 8.29368 14.0559 8.48734ZM7.68571 6.50686C7.77097 6.46667 7.86354 6.44474 7.95855 6.44474H13.4237C13.7733 6.44353 14.0571 6.72489 14.0583 7.07445C14.0583 7.35094 13.8805 7.59698 13.6162 7.6798L11.3617 8.39964C11.3909 8.31195 11.4055 8.2206 11.4055 8.12803C11.4055 7.63717 11.0072 7.2401 10.5164 7.2401H6.14981L7.68571 6.50686ZM4.97444 8.31073H10.2021C10.3032 8.31073 10.3848 8.22912 10.3848 8.12803C10.3848 8.02693 10.3032 7.94533 10.2021 7.94533H4.97444C5.04995 7.74192 5.24483 7.60672 5.46164 7.6055H10.5164C10.8038 7.60429 11.0389 7.83571 11.0401 8.12437C11.0401 8.32656 10.9244 8.5117 10.7417 8.59818L10.6041 8.64202C10.576 8.64202 10.5492 8.64933 10.52 8.65055H5.4592C5.2424 8.64812 5.04995 8.51292 4.97444 8.31073ZM5.46164 9.01595H10.52C10.8075 9.01595 11.0413 9.24737 11.0425 9.5336C11.0425 9.73701 10.9256 9.92093 10.7417 10.0074L10.6041 10.0513C10.5748 10.0573 10.5456 10.0598 10.5164 10.061H5.46286C5.24605 10.061 5.05117 9.92458 4.97565 9.72118H10.2021C10.3032 9.72118 10.3848 9.63957 10.3848 9.53848C10.3848 9.43738 10.3032 9.35578 10.2021 9.35578H4.97444C5.04995 9.15237 5.24483 9.01717 5.46164 9.01595ZM4.97444 11.1353H10.2021C10.3032 11.1353 10.3848 11.0537 10.3848 10.9526C10.3848 10.8515 10.3032 10.7699 10.2021 10.7699H4.97444C5.04995 10.5665 5.24483 10.4313 5.46164 10.4301H10.5164C10.8038 10.4288 11.0389 10.6603 11.0401 10.9489C11.0401 11.1511 10.9244 11.3363 10.7417 11.4227L10.6041 11.4666C10.5821 11.4702 10.5602 11.4727 10.5383 11.4739H5.44093C5.23143 11.4654 5.04752 11.3314 4.97444 11.1353ZM4.97444 12.5433H10.2021C10.3032 12.5433 10.3848 12.4617 10.3848 12.3606C10.3848 12.2595 10.3032 12.1779 10.2021 12.1779H4.97444C5.04752 11.9818 5.23143 11.8478 5.44093 11.8393H10.5383C10.8257 11.8478 11.0511 12.0878 11.0425 12.3752C11.0364 12.5713 10.9207 12.7479 10.7417 12.8307L10.6041 12.8758C10.5748 12.8807 10.5456 12.8843 10.5164 12.8843H5.46286C5.24483 12.8843 5.04995 12.7479 4.97444 12.5433ZM13.6223 11.9124L11.3617 12.6322C11.3909 12.5445 11.4055 12.4532 11.4055 12.3606C11.4055 12.1036 11.2934 11.86 11.0998 11.6919L13.727 10.8527C13.7587 10.843 13.7879 10.8283 13.8184 10.8162C14.0912 11.0342 14.1363 11.4313 13.9182 11.7041C13.8403 11.8015 13.7355 11.8734 13.6162 11.9124H13.6223ZM14.0559 9.90753C14.0559 10.1828 13.8781 10.4264 13.6162 10.5104L11.3617 11.2242C11.3909 11.1365 11.4055 11.0451 11.4055 10.9526C11.4055 10.6931 11.291 10.4471 11.0937 10.279L13.727 9.4386C13.7563 9.42886 13.7843 9.41546 13.8123 9.40328C13.9682 9.52386 14.0583 9.71022 14.0559 9.90753Z" fill="white"/>
</g>
<defs>
<clipPath id="clip0_771_42260">
<rect width="9.84879" height="7.17039" fill="white" transform="translate(4.57031 6.07812)"/>
</clipPath>
</defs>
</svg>
