<svg width="19" height="19" viewBox="0 0 19 19" fill="none" xmlns="http://www.w3.org/2000/svg">
<rect x="0.271429" y="0.271429" width="18.4571" height="18.4571" rx="2.44286" fill="#D9D9D9" fill-opacity="0.1" stroke="white" stroke-width="0.542857"/>
<path d="M4.61635 13.1659C4.61635 13.1655 4.61666 13.1652 4.61706 13.1652C4.80284 13.165 4.98576 13.1011 5.13042 12.9862C5.59224 12.6177 6.97779 11.5477 8.444 10.7527C9.0864 10.4044 9.85693 10.4044 10.4993 10.7528C11.9655 11.5481 13.3511 12.6188 13.8129 12.9862C13.9578 13.1027 14.141 13.1652 14.327 13.1652C14.6011 13.1652 14.8567 13.0303 15.0101 12.803C15.1634 12.5758 15.1947 12.289 15.0938 12.0348L15.0598 11.9481C14.8737 11.4809 14.4278 11.1785 13.9251 11.1785C13.8598 11.1785 13.7944 11.1628 13.7376 11.1316L12.1287 10.2738C11.8631 10.1318 11.6444 9.9174 11.4967 9.65469C11.1431 9.02416 10.4743 8.63363 9.75143 8.63363C9.71613 8.63363 9.68752 8.60502 9.68752 8.56973V8.44334C9.68752 8.35103 9.74717 8.26867 9.83379 8.23743C10.3621 8.05565 10.6731 7.50323 10.558 6.95224C10.47 6.53189 10.1306 6.19106 9.71024 6.10444C9.37652 6.03485 9.0357 6.1158 8.7744 6.32881C8.51452 6.54041 8.36541 6.85425 8.36541 7.18939C8.36541 7.30726 8.46056 7.40241 8.57842 7.40241C8.69629 7.40241 8.79144 7.30726 8.79144 7.18939C8.79144 6.98348 8.88374 6.79034 9.04422 6.65969C9.20753 6.52763 9.41202 6.47792 9.62362 6.52337C9.87923 6.57733 10.088 6.78466 10.142 7.0417C10.2243 7.43507 9.98006 7.73897 9.69604 7.83696C9.43616 7.92642 9.26149 8.17068 9.26149 8.44476V8.57115C9.26149 8.60644 9.23288 8.63505 9.19759 8.63505C8.47476 8.63505 7.80589 9.027 7.45228 9.65611C7.30459 9.91882 7.0859 10.1333 6.82034 10.2753L5.21137 11.133C5.15314 11.1643 5.08924 11.1799 5.02391 11.1799C4.5212 11.1799 4.07529 11.4824 3.88925 11.9496L3.85517 12.0362C3.75434 12.2904 3.78559 12.5787 3.93896 12.8045C4.09233 13.0317 4.34795 13.1666 4.62203 13.1666H4.61706C4.61666 13.1666 4.61635 13.1663 4.61635 13.1659ZM4.24499 12.191C4.24542 12.191 4.2458 12.1907 4.24596 12.1903L4.27978 12.1044C4.40049 11.8005 4.69161 11.6031 5.01965 11.6031C5.15456 11.6031 5.28947 11.569 5.40876 11.5065L7.01773 10.6488C7.35572 10.4684 7.63406 10.1972 7.82151 9.86344C8.09985 9.36782 8.62671 9.05966 9.19617 9.05966H9.74859C10.318 9.05966 10.8435 9.36782 11.1232 9.86344C11.3107 10.1972 11.589 10.4684 11.927 10.6488L13.536 11.5065C13.6553 11.5704 13.7888 11.6031 13.9251 11.6031C14.2531 11.6031 14.5428 11.8005 14.665 12.1044L14.6991 12.191C14.7488 12.316 14.7346 12.4523 14.6579 12.563C14.5826 12.6738 14.4619 12.7377 14.327 12.7377C14.2375 12.7377 14.1495 12.7065 14.0785 12.6511C13.4905 12.181 11.4243 10.5891 9.55261 9.82368C9.52705 9.81374 9.49865 9.80806 9.47167 9.80806C9.44468 9.80806 9.41628 9.81374 9.39072 9.82368C7.51903 10.5891 5.45278 12.181 4.86486 12.6511C4.79528 12.7065 4.70723 12.7377 4.61635 12.7377C4.48144 12.7377 4.36073 12.6738 4.28546 12.563C4.21033 12.4525 4.19463 12.3164 4.24402 12.1916C4.24417 12.1912 4.24456 12.191 4.24499 12.191Z" fill="white"/>
</svg>
