<svg width="19" height="19" viewBox="0 0 19 19" fill="none" xmlns="http://www.w3.org/2000/svg">
<rect x="0.271429" y="0.271429" width="18.4571" height="18.4571" rx="2.44286" fill="#D9D9D9" fill-opacity="0.1" stroke="white" stroke-width="0.542857"/>
<g clip-path="url(#clip0_771_42249)">
<path d="M12.5666 4.93945H6.13527C5.6904 4.93945 5.32812 5.30172 5.32812 5.7466V7.24843C5.32812 7.24843 5.32812 7.24843 5.32812 7.25042C5.32812 7.25241 5.32812 7.25042 5.32812 7.25241V13.4658C5.32812 13.9106 5.6904 14.2729 6.13527 14.2729H12.5666C13.0114 14.2729 13.3737 13.9106 13.3737 13.4658V5.7466C13.3727 5.30172 13.0114 4.93945 12.5666 4.93945ZM6.13527 5.24997H12.5666C12.8403 5.24997 13.0622 5.47191 13.0622 5.7456V7.09317H5.63964V5.7466C5.63964 5.47291 5.86158 5.25097 6.13527 5.25097V5.24997ZM12.5666 13.9584H6.13527C5.86158 13.9584 5.63964 13.7365 5.63964 13.4628V7.40469H13.0622V13.4638C13.0622 13.7375 12.8403 13.9594 12.5666 13.9594V13.9584Z" fill="white"/>
<path d="M9.34731 8.03906C7.83751 8.03906 6.60938 9.2672 6.60938 10.777C6.60938 12.2868 7.83751 13.5149 9.34731 13.5149C10.8571 13.5149 12.0852 12.2868 12.0852 10.777C12.0852 9.2672 10.8571 8.03906 9.34731 8.03906ZM9.34731 13.2044C8.00969 13.2044 6.91989 12.1156 6.91989 10.777C6.91989 9.43838 8.0087 8.34958 9.34731 8.34958C10.6859 8.34958 11.7747 9.43838 11.7747 10.777C11.7747 12.1156 10.6859 13.2044 9.34731 13.2044Z" fill="white"/>
<path d="M9.3452 8.77539C8.24146 8.77539 7.34375 9.67311 7.34375 10.7768C7.34375 11.8806 8.24146 12.7783 9.3452 12.7783C10.4489 12.7783 11.3466 11.8806 11.3466 10.7768C11.3466 9.67311 10.4489 8.77539 9.3452 8.77539ZM9.3452 9.08591C10.2519 9.08591 10.9913 9.80348 11.0311 10.6992C10.8231 10.8385 10.1285 11.2227 9.44373 10.6564C8.75999 10.0911 8.05734 10.2971 7.68114 10.4842C7.81948 9.69102 8.51217 9.08491 9.3452 9.08491V9.08591ZM9.3452 12.4668C8.43852 12.4668 7.69905 11.7492 7.65924 10.8535C7.86626 10.7141 8.56193 10.33 9.24667 10.8963C9.58107 11.1729 9.91945 11.2645 10.222 11.2645C10.5246 11.2645 10.8162 11.163 11.0093 11.0674C10.8709 11.8607 10.1782 12.4668 9.3452 12.4668Z" fill="white"/>
<path d="M6.59276 6.34567H7.84876C7.93435 6.34567 8.00402 6.27601 8.00402 6.19042C8.00402 6.10482 7.93435 6.03516 7.84876 6.03516H6.59276C6.50717 6.03516 6.4375 6.10482 6.4375 6.19042C6.4375 6.27601 6.50717 6.34567 6.59276 6.34567Z" fill="white"/>
<path d="M11.9189 6.75568C12.2314 6.75568 12.4861 6.50089 12.4861 6.18839C12.4861 5.87588 12.2314 5.62109 11.9189 5.62109C11.6063 5.62109 11.3516 5.87588 11.3516 6.18839C11.3516 6.50089 11.6063 6.75568 11.9189 6.75568ZM11.9189 5.93161C12.0602 5.93161 12.1756 6.04706 12.1756 6.18839C12.1756 6.32971 12.0602 6.44416 11.9189 6.44416C11.7775 6.44416 11.6631 6.32872 11.6631 6.18839C11.6631 6.04806 11.7785 5.93161 11.9189 5.93161Z" fill="white"/>
<path d="M10.1712 6.65299C10.2677 6.72066 10.3802 6.75649 10.4956 6.75649C10.5285 6.75649 10.5613 6.75351 10.5951 6.74754C10.9027 6.69379 11.1107 6.3992 11.0559 6.09067C11.0012 5.78214 10.7066 5.57513 10.3991 5.62987C10.2498 5.65575 10.1194 5.73835 10.0328 5.86276C9.94525 5.98717 9.91241 6.13745 9.93828 6.28674C9.96416 6.43602 10.0468 6.5664 10.1712 6.65299ZM10.2866 6.0419C10.3254 5.98617 10.3851 5.94835 10.4518 5.93641C10.4668 5.93342 10.4817 5.93243 10.4966 5.93243C10.619 5.93243 10.7275 6.02001 10.7494 6.14442C10.7733 6.28375 10.6797 6.41711 10.5414 6.441C10.4737 6.45294 10.4061 6.43801 10.3503 6.3982C10.2946 6.35939 10.2568 6.30067 10.2458 6.23299C10.2339 6.16532 10.2488 6.09764 10.2886 6.0419H10.2866Z" fill="white"/>
</g>
<defs>
<clipPath id="clip0_771_42249">
<rect width="8.0446" height="9.33046" fill="white" transform="translate(5.32812 4.93945)"/>
</clipPath>
</defs>
</svg>
