<svg width="19" height="19" viewBox="0 0 19 19" fill="none" xmlns="http://www.w3.org/2000/svg">
<rect x="0.271429" y="0.271429" width="18.4571" height="18.4571" rx="2.44286" fill="#D9D9D9" fill-opacity="0.1" stroke="white" stroke-width="0.542857"/>
<g clip-path="url(#clip0_771_42266)">
<path d="M14.121 5.69922H4.89965C4.71851 5.69922 4.57031 5.84742 4.57031 6.02855V6.68722C4.57031 6.86835 4.71851 7.01655 4.89965 7.01655H6.20216L8.85165 9.98385V11.9566H8.19298C7.64793 11.9566 7.20498 12.3995 7.20498 12.9446C7.20498 13.1257 7.35318 13.2739 7.53431 13.2739H11.4863C11.6674 13.2739 11.8156 13.1257 11.8156 12.9446C11.8156 12.3995 11.3776 11.9582 10.8326 11.9566C10.8309 11.9566 10.8293 11.9566 10.8276 11.9566H10.169V9.98385L12.8185 7.01655H14.121C14.3021 7.01655 14.4503 6.86835 14.4503 6.68722V6.02855C14.4503 5.84742 14.3021 5.69922 14.121 5.69922ZM13.2598 6.02855L9.61735 10.1073C9.56301 10.1666 9.47079 10.1699 9.41151 10.1156C9.40822 10.1139 9.40657 10.1106 9.40328 10.1073L5.76085 6.02855H13.2598ZM4.89965 6.68722V6.02855H5.31955L5.90741 6.68722H4.89965ZM11.2937 12.4769C11.4172 12.6004 11.4863 12.7684 11.4863 12.9446H7.53431C7.53431 12.5806 7.82907 12.2859 8.19298 12.2859H10.8276C11.0022 12.2859 11.1702 12.355 11.2937 12.4769ZM9.18098 11.9566V10.3478C9.36211 10.5289 9.65522 10.5305 9.838 10.3494C9.838 10.3494 9.838 10.3494 9.83965 10.3478V11.9566H9.18098ZM14.121 6.68722H13.1132L13.7011 6.02855H14.121V6.68722Z" fill="white"/>
</g>
<defs>
<clipPath id="clip0_771_42266">
<rect width="9.88" height="7.57467" fill="white" transform="translate(4.57031 5.69922)"/>
</clipPath>
</defs>
</svg>
