<svg width="25" height="26" viewBox="0 0 25 26" fill="none" xmlns="http://www.w3.org/2000/svg">
<path fill-rule="evenodd" clip-rule="evenodd" d="M11.4581 5.65801V3.49967C11.4581 2.92467 11.9247 2.45801 12.4997 2.45801C13.0737 2.45801 13.5414 2.92467 13.5414 3.49967V5.65801C15.0893 5.88092 16.5362 6.59967 17.655 7.71842C19.0227 9.08613 19.7914 10.9413 19.7914 12.8747V16.7955L20.6341 18.4809C21.0373 19.2882 20.9946 20.2465 20.5196 21.0142C20.0456 21.7819 19.207 22.2497 18.305 22.2497H13.5414C13.5414 22.8247 13.0737 23.2913 12.4997 23.2913C11.9247 23.2913 11.4581 22.8247 11.4581 22.2497H6.69452C5.7914 22.2497 4.95287 21.7819 4.47891 21.0142C4.00391 20.2465 3.96119 19.2882 4.36536 18.4809L5.20806 16.7955V12.8747C5.20806 10.9413 5.97579 9.08613 7.3435 7.71842C8.46329 6.59967 9.90911 5.88092 11.4581 5.65801ZM12.4997 7.66633C11.1174 7.66633 9.7935 8.21529 8.81642 9.19238C7.83933 10.1684 7.2914 11.4934 7.2914 12.8747V17.0413C7.2914 17.2028 7.25287 17.3622 7.18099 17.507C7.18099 17.507 6.71744 18.434 6.22786 19.4122C6.14765 19.5736 6.15598 19.7663 6.25078 19.9194C6.34557 20.0726 6.51327 20.1663 6.69452 20.1663H18.305C18.4852 20.1663 18.6529 20.0726 18.7477 19.9194C18.8425 19.7663 18.8508 19.5736 18.7706 19.4122C18.281 18.434 17.8175 17.507 17.8175 17.507C17.7456 17.3622 17.7081 17.2028 17.7081 17.0413V12.8747C17.7081 11.4934 17.1591 10.1684 16.182 9.19238C15.205 8.21529 13.881 7.66633 12.4997 7.66633Z" fill="white"/>
</svg>
