<svg width="24" height="25" viewBox="0 0 24 25" fill="none" xmlns="http://www.w3.org/2000/svg">
<path d="M20.1 15.7063C20.6951 14.5282 21.0034 13.2261 21 11.9063V11.4063C20.885 9.32193 20.0052 7.35324 18.5291 5.87714C17.053 4.40104 15.0843 3.52127 13 3.40628H12.5C11.1801 3.40284 9.87812 3.71121 8.7 4.30628C7.28825 5.01185 6.10083 6.09653 5.27072 7.43883C4.44061 8.78113 4.00061 10.328 4 11.9063C3.99656 13.2261 4.30493 14.5282 4.9 15.7063L3 21.4063L8.7 19.5063C9.87812 20.1013 11.1801 20.4097 12.5 20.4063C14.0782 20.4057 15.6251 19.9657 16.9674 19.1356C18.3098 18.3055 19.3944 17.118 20.1 15.7063Z" stroke="white" stroke-width="2" stroke-linecap="round" stroke-linejoin="round"/>
</svg>
