<svg width="21" height="16" viewBox="0 0 21 16" fill="none" xmlns="http://www.w3.org/2000/svg">
<path d="M11.5731 15.4922H1.61231C0.911138 15.4922 0.342773 14.9238 0.342773 14.2227C0.342773 13.5215 0.911138 12.9531 1.61231 12.9531H11.5732C12.2743 12.9531 12.8427 13.5215 12.8427 14.2227C12.8427 14.9238 12.2743 15.4922 11.5731 15.4922Z" fill="white"/>
<path d="M19.3857 9.1445H1.61231C0.911139 9.1445 0.342773 8.57613 0.342773 7.87501C0.342773 7.17388 0.911139 6.60547 1.61231 6.60547H19.3857C20.0868 6.60547 20.6552 7.17384 20.6552 7.87501C20.6552 8.57618 20.0868 9.1445 19.3857 9.1445Z" fill="white"/>
<path d="M19.3857 2.79688H1.61231C0.911139 2.79688 0.342773 2.22852 0.342773 1.52735C0.342773 0.826178 0.911139 0.257812 1.61231 0.257812H19.3857C20.0868 0.257812 20.6552 0.826178 20.6552 1.52735C20.6552 2.22852 20.0868 2.79688 19.3857 2.79688Z" fill="white"/>
</svg>
